<?xml version="1.0" standalone="no"?>
<!DOCTYPE svg PUBLIC "-//W3C//DTD SVG 1.1//EN" "http://www.w3.org/Graphics/SVG/1.1/DTD/svg11.dtd" >
<svg xmlns="http://www.w3.org/2000/svg" xmlns:xlink="http://www.w3.org/1999/xlink" version="1.1">
<metadata>
Created by FontForge 20170731 at Thu Oct  4 07:15:00 2018
 By Aleksey,,,
Released by Jayvee Enaguas (HarvettFox96) &#60;harvettfox96 [at] protonmail [dot] com&#62;, licensed under a Creative Commons Zero (CC0) 1.0 &#60;https://creativecommons.org/licenses/zero/1.0/&#62;. (c) 2009-2018.
</metadata>
<defs>
<font id="PixelOperatorMonoHB" horiz-adv-x="800" >
  <font-face 
    font-family="Pixel Operator Mono HB"
    font-weight="400"
    font-stretch="normal"
    units-per-em="1600"
    panose-1="2 0 5 9 0 0 0 0 0 0"
    ascent="1300"
    descent="-300"
    x-height="700"
    cap-height="900"
    bbox="-100 -400 800 1300"
    underline-thickness="100"
    underline-position="-450"
    unicode-range="U+0020-2122"
  />
<missing-glyph 
d="M500 800h-300v-700h300v700zM100 900h500v-900h-500v900z" />
    <glyph glyph-name=".notdef" 
d="M500 800h-300v-700h300v700zM100 900h500v-900h-500v900z" />
    <glyph glyph-name=".null" horiz-adv-x="0" 
 />
    <glyph glyph-name="nonmarkingreturn" 
 />
    <glyph glyph-name="space" unicode=" " 
 />
    <glyph glyph-name="exclam" unicode="!" 
d="M300 900h200v-700h-200v700zM300 100h200v-100h-200v100z" />
    <glyph glyph-name="quotedbl" unicode="&#x22;" 
d="M100 900h200v-300h-200v300zM400 900h200v-300h-200v300z" />
    <glyph glyph-name="numbersign" unicode="#" 
d="M100 900h200v-200h100v200h200v-200h100v-100h-100v-300h100v-100h-100v-200h-200v200h-100v-200h-200v200h-100v100h100v300h-100v100h100v200zM400 600h-100v-300h100v300z" />
    <glyph glyph-name="dollar" unicode="$" 
d="M0 200h100v-100h-100v100zM600 800h100v-100h-100v100zM300 1100h100v-200h200v-100h-200v-300h200v-100h100v-300h-100v-100h-200v-200h-100v200h-200v100h200v300h-200v100h-100v300h100v100h200v200zM300 800h-100v-300h100v300zM500 400h-100v-300h100v300z" />
    <glyph glyph-name="percent" unicode="%" 
d="M600 800h100v-200h-100v-100h-100v-100h-100v-100h-100v-100h-100v-100h-100v200h100v100h100v100h100v100h100v100h100v100zM500 400h200v-100h-100v-200h100v-100h-200v100h-100v200h100v100zM700 300h100v-200h-100v200zM100 900h200v-100h-100v-200h100v-100h-200
v100h-100v200h100v100zM300 800h100v-200h-100v200z" />
    <glyph glyph-name="ampersand" unicode="&#x26;" 
d="M600 800h100v-100h-100v100zM200 900h400v-100h-300v-300h300v-100h100v-400h-500v100h-100v300h100v100h-100v300h100v100zM500 400h-200v-300h200v300z" />
    <glyph glyph-name="quotesingle" unicode="'" 
d="M300 900h200v-300h-200v300z" />
    <glyph glyph-name="parenleft" unicode="(" 
d="M500 900h200v-100h-100v-100h-100v-500h100v-100h100v-100h-200v100h-100v100h-100v500h100v100h100v100z" />
    <glyph glyph-name="parenright" unicode=")" 
d="M100 900h200v-100h100v-100h100v-500h-100v-100h-100v-100h-200v100h100v100h100v500h-100v100h-100v100z" />
    <glyph glyph-name="asterisk" unicode="*" 
d="M300 900h100v-200h100v100h100v-200h-100v-100h100v-200h-100v100h-100v-200h-100v200h-100v-100h-100v200h100v100h-100v200h100v-100h100v200z" />
    <glyph glyph-name="plus" unicode="+" 
d="M300 700h200v-200h200v-100h-200v-200h-200v200h-200v100h200v200z" />
    <glyph glyph-name="comma" unicode="," 
d="M300 100h200v-200h-100v-100h-200v100h100v200z" />
    <glyph glyph-name="hyphen" unicode="-" 
d="M200 500h400v-100h-400v100z" />
    <glyph glyph-name="period" unicode="." 
d="M300 100h200v-100h-200v100z" />
    <glyph glyph-name="slash" unicode="/" 
d="M400 900h200v-300h-100v-300h-100v-300h-200v300h100v300h100v300z" />
    <glyph glyph-name="zero" unicode="0" 
d="M200 900h400v-100h100v-700h-100v-100h-400v100h-100v700h100v100zM500 800h-200v-300h100v100h100v200zM500 400h-100v-100h-100v-200h200v300z" />
    <glyph glyph-name="one" unicode="1" 
d="M100 700h100v-100h-100v100zM300 900h200v-800h200v-100h-600v100h200v600h-100v100h100v100z" />
    <glyph glyph-name="two" unicode="2" 
d="M100 800h100v-100h-100v100zM200 900h400v-100h100v-200h-100v-100h-100v-100h-100v-100h-100v-200h400v-100h-600v300h100v100h100v100h100v100h100v200h-300v100z" />
    <glyph glyph-name="three" unicode="3" 
d="M100 800h100v-100h-100v100zM100 200h100v-100h-100v100zM200 900h400v-100h100v-300h-100v-100h100v-300h-100v-100h-400v100h300v300h-200v100h200v300h-300v100z" />
    <glyph glyph-name="four" unicode="4" 
d="M300 700h100v-100h-100v100zM500 900h200v-900h-200v300h-400v200h100v100h100v-200h200v300h-100v100h100v100z" />
    <glyph glyph-name="five" unicode="5" 
d="M100 200h100v-100h-100v100zM100 900h600v-100h-400v-200h300v-100h100v-400h-100v-100h-400v100h300v400h-400v400z" />
    <glyph glyph-name="six" unicode="6" 
d="M600 800h100v-100h-100v100zM200 900h400v-100h-300v-300h300v-100h100v-300h-100v-100h-400v100h-100v700h100v100zM500 400h-200v-300h200v300z" />
    <glyph glyph-name="seven" unicode="7" 
d="M100 900h600v-300h-100v-100h-100v-100h-100v-100h-100v-300h-200v300h100v100h100v100h100v100h100v200h-400v100z" />
    <glyph glyph-name="eight" unicode="8" 
d="M200 900h400v-100h100v-300h-100v-100h100v-300h-100v-100h-400v100h-100v300h100v100h-100v300h100v100zM500 800h-200v-300h200v300zM500 400h-200v-300h200v300z" />
    <glyph glyph-name="nine" unicode="9" 
d="M100 200h100v-100h-100v100zM200 900h400v-100h100v-700h-100v-100h-400v100h300v300h-300v100h-100v300h100v100zM500 800h-200v-300h200v300z" />
    <glyph glyph-name="colon" unicode=":" 
d="M300 100h200v-100h-200v100zM300 700h200v-100h-200v100z" />
    <glyph glyph-name="semicolon" unicode=";" 
d="M300 700h200v-100h-200v100zM300 100h200v-200h-100v-100h-200v100h100v200z" />
    <glyph glyph-name="less" unicode="&#x3c;" 
d="M400 700h200v-100h-100v-100h-100v-100h100v-100h100v-100h-200v100h-100v100h-100v100h100v100h100v100z" />
    <glyph glyph-name="equal" unicode="=" 
d="M200 600h400v-100h-400v100zM200 400h400v-100h-400v100z" />
    <glyph glyph-name="greater" unicode="&#x3e;" 
d="M200 700h200v-100h100v-100h100v-100h-100v-100h-100v-100h-200v100h100v100h100v100h-100v100h-100v100z" />
    <glyph glyph-name="question" unicode="?" 
d="M100 800h100v-100h-100v100zM200 900h400v-100h100v-200h-100v-100h-100v-300h-200v300h100v100h100v200h-300v100zM300 100h200v-100h-200v100z" />
    <glyph glyph-name="at" unicode="@" 
d="M200 600h100v-300h-100v300zM300 700h200v-400h100v-100h-300v100h100v300h-100v100zM600 800h100v-500h-100v500zM100 100h500v-100h-500v100zM0 800h100v-700h-100v700zM100 900h500v-100h-500v100z" />
    <glyph glyph-name="A" unicode="A" 
d="M200 900h400v-100h100v-800h-200v300h-200v-300h-200v800h100v100zM500 800h-200v-400h200v400z" />
    <glyph glyph-name="B" unicode="B" 
d="M100 900h500v-100h100v-300h-100v-100h100v-300h-100v-100h-500v900zM500 800h-200v-300h200v300zM500 400h-200v-300h200v300z" />
    <glyph glyph-name="C" unicode="C" 
d="M600 800h100v-100h-100v100zM600 200h100v-100h-100v100zM200 900h400v-100h-300v-700h300v-100h-400v100h-100v700h100v100z" />
    <glyph glyph-name="D" unicode="D" 
d="M100 900h500v-100h100v-700h-100v-100h-500v900zM500 800h-200v-700h200v700z" />
    <glyph glyph-name="E" unicode="E" 
d="M100 900h600v-100h-400v-300h200v-100h-200v-300h400v-100h-600v900z" />
    <glyph glyph-name="F" unicode="F" 
d="M100 900h600v-100h-400v-300h200v-100h-200v-400h-200v900z" />
    <glyph glyph-name="G" unicode="G" 
d="M600 800h100v-100h-100v100zM200 900h400v-100h-300v-700h200v300h-100v100h300v-500h-500v100h-100v700h100v100z" />
    <glyph glyph-name="H" unicode="H" 
d="M100 900h200v-400h200v400h200v-900h-200v400h-200v-400h-200v900z" />
    <glyph glyph-name="I" unicode="I" 
d="M100 900h600v-100h-200v-700h200v-100h-600v100h200v700h-200v100z" />
    <glyph glyph-name="J" unicode="J" 
d="M100 200h100v-100h-100v100zM300 900h500v-100h-100v-700h-100v-100h-400v100h300v700h-200v100z" />
    <glyph glyph-name="K" unicode="K" 
d="M600 900h100v-200h-100v200zM500 700h100v-100h-100v100zM400 600h100v-100h-100v100zM100 900h200v-400h100v-100h100v-100h100v-100h100v-200h-200v200h-100v100h-100v-300h-200v900z" />
    <glyph glyph-name="L" unicode="L" 
d="M100 900h200v-800h400v-100h-600v900z" />
    <glyph glyph-name="M" unicode="M" 
d="M0 900h100v-100h100v-100h100v-100h100v100h100v100h100v100h200v-900h-200v600h-100v-100h-100v-100h-100v100h-100v100h-100v-600h-100v900z" />
    <glyph glyph-name="N" unicode="N" 
d="M100 900h200v-200h100v-100h100v-100h100v400h100v-900h-100v300h-100v100h-100v100h-100v-500h-200v900z" />
    <glyph glyph-name="O" unicode="O" 
d="M200 900h400v-100h100v-700h-100v-100h-400v100h-100v700h100v100zM500 800h-200v-700h200v700z" />
    <glyph glyph-name="P" unicode="P" 
d="M100 900h500v-100h100v-300h-100v-100h-300v-400h-200v900zM500 800h-200v-300h200v300z" />
    <glyph glyph-name="Q" unicode="Q" 
d="M500 800h-200v-400h100v-100h100v500zM200 900h400v-100h100v-600h-100v-100h100v-100h-200v100h-100v100h-100v-100h100v-100h-200v100h-100v700h100v100z" />
    <glyph glyph-name="R" unicode="R" 
d="M500 800h-200v-300h200v300zM100 900h500v-100h100v-300h-100v-100h-100v-100h100v-100h100v-200h-200v200h-100v100h-100v-300h-200v900z" />
    <glyph glyph-name="S" unicode="S" 
d="M600 800h100v-100h-100v100zM100 200h100v-100h-100v100zM200 900h400v-100h-300v-300h300v-100h100v-300h-100v-100h-400v100h300v300h-300v100h-100v300h100v100z" />
    <glyph glyph-name="T" unicode="T" 
d="M100 900h600v-100h-200v-800h-200v800h-200v100z" />
    <glyph glyph-name="U" unicode="U" 
d="M100 900h200v-800h200v800h200v-800h-100v-100h-400v100h-100v800z" />
    <glyph glyph-name="V" unicode="V" 
d="M500 200h100v-100h-100v100zM600 900h100v-700h-100v700zM100 900h200v-700h100v-100h100v-100h-200v100h-100v100h-100v700z" />
    <glyph glyph-name="W" unicode="W" 
d="M0 900h200v-800h100v-100h-200v100h-100v800zM600 900h100v-800h-100v800zM300 700h200v-600h100v-100h-200v100h-100v600z" />
    <glyph glyph-name="X" unicode="X" 
d="M600 900h100v-300h-100v300zM500 600h100v-100h-100v100zM200 400h100v-100h-100v100zM100 300h100v-300h-100v300zM100 900h200v-300h100v-100h100v-100h100v-100h100v-300h-200v300h-100v100h-100v100h-100v100h-100v300z" />
    <glyph glyph-name="Y" unicode="Y" 
d="M500 600h100v-100h-100v100zM600 900h100v-300h-100v300zM100 900h200v-300h100v-100h100v-500h-200v500h-100v100h-100v300z" />
    <glyph glyph-name="Z" unicode="Z" 
d="M100 900h600v-300h-100v-100h-100v-100h-100v-100h-100v-200h400v-100h-600v300h100v100h100v100h100v100h100v200h-400v100z" />
    <glyph glyph-name="bracketleft" unicode="[" 
d="M300 900h400v-100h-200v-700h200v-100h-400v900z" />
    <glyph glyph-name="backslash" unicode="\" 
d="M200 900h200v-300h100v-300h100v-300h-200v300h-100v300h-100v300z" />
    <glyph glyph-name="bracketright" unicode="]" 
d="M100 900h400v-900h-400v100h200v700h-200v100z" />
    <glyph glyph-name="asciicircum" unicode="^" 
d="M300 900h200v-100h100v-100h100v-200h-100v100h-100v100h-200v-100h-100v-100h-100v200h100v100h100v100z" />
    <glyph glyph-name="underscore" unicode="_" 
d="M0 -100h800v-100h-800v100z" />
    <glyph glyph-name="grave" unicode="`" 
d="M200 900h200v-100h100v-100h-200v100h-100v100z" />
    <glyph glyph-name="a" unicode="a" 
d="M100 600h100v-100h-100v100zM200 700h400v-100h100v-600h-500v100h-100v200h100v100h300v200h-300v100zM500 300h-200v-200h200v200z" />
    <glyph glyph-name="b" unicode="b" 
d="M100 900h200v-200h300v-100h100v-500h-100v-100h-500v900zM500 600h-200v-500h200v500z" />
    <glyph glyph-name="c" unicode="c" 
d="M600 600h100v-100h-100v100zM600 200h100v-100h-100v100zM200 700h400v-100h-300v-500h300v-100h-400v100h-100v500h100v100z" />
    <glyph glyph-name="d" unicode="d" 
d="M500 900h200v-900h-500v100h-100v500h100v100h300v200zM500 600h-200v-500h200v500z" />
    <glyph glyph-name="e" unicode="e" 
d="M600 200h100v-100h-100v100zM200 700h400v-100h100v-300h-400v-200h300v-100h-400v100h-100v500h100v100zM500 600h-200v-200h200v200z" />
    <glyph glyph-name="f" unicode="f" 
d="M400 900h300v-100h-200v-200h200v-100h-200v-500h-200v500h-100v100h100v200h100v100z" />
    <glyph glyph-name="g" unicode="g" 
d="M100 0h100v-100h-100v100zM200 700h500v-800h-100v-100h-400v100h300v200h-300v100h-100v400h100v100zM500 600h-200v-400h200v400z" />
    <glyph glyph-name="h" unicode="h" 
d="M100 900h200v-200h300v-100h100v-600h-200v600h-200v-600h-200v900z" />
    <glyph glyph-name="i" unicode="i" 
d="M100 700h400v-600h200v-100h-600v100h200v500h-200v100zM300 900h200v-100h-200v100z" />
    <glyph glyph-name="j" unicode="j" 
d="M500 900h200v-100h-200v100zM100 0h100v-100h-100v100zM300 700h400v-800h-100v-100h-400v100h300v700h-200v100z" />
    <glyph glyph-name="k" unicode="k" 
d="M600 700h100v-100h-100v100zM500 600h100v-100h-100v100zM400 500h100v-100h-100v100zM100 900h200v-500h100v-100h100v-100h100v-100h100v-100h-200v100h-100v100h-100v-200h-200v900z" />
    <glyph glyph-name="l" unicode="l" 
d="M100 900h400v-800h200v-100h-600v100h200v700h-200v100z" />
    <glyph glyph-name="m" unicode="m" 
d="M0 700h300v-100h-100v-600h-200v700zM300 600h100v-400h-100v400zM400 700h200v-100h100v-600h-200v600h-100v100z" />
    <glyph glyph-name="n" unicode="n" 
d="M100 700h500v-100h100v-600h-200v600h-200v-600h-200v700z" />
    <glyph glyph-name="o" unicode="o" 
d="M200 700h400v-100h100v-500h-100v-100h-400v100h-100v500h100v100zM500 600h-200v-500h200v500z" />
    <glyph glyph-name="p" unicode="p" 
d="M100 700h500v-100h100v-500h-100v-100h-300v-200h-200v900zM500 600h-200v-500h200v500z" />
    <glyph glyph-name="q" unicode="q" 
d="M200 700h500v-900h-200v200h-300v100h-100v500h100v100zM500 600h-200v-500h200v500z" />
    <glyph glyph-name="r" unicode="r" 
d="M100 700h200v-200h100v-100h-100v-400h-200v700zM500 700h200v-200h-300v100h100v100z" />
    <glyph glyph-name="s" unicode="s" 
d="M600 600h100v-100h-100v100zM100 200h100v-100h-100v100zM200 700h400v-100h-300v-200h300v-100h100v-200h-100v-100h-400v100h300v200h-300v100h-100v200h100v100z" />
    <glyph glyph-name="t" unicode="t" 
d="M300 800h200v-100h200v-100h-200v-500h200v-100h-300v100h-100v500h-100v100h100v100z" />
    <glyph glyph-name="u" unicode="u" 
d="M100 700h200v-600h200v600h200v-600h-100v-100h-400v100h-100v600z" />
    <glyph glyph-name="v" unicode="v" 
d="M500 200h100v-100h-100v100zM600 700h100v-500h-100v500zM100 700h200v-500h100v-100h100v-100h-200v100h-100v100h-100v500z" />
    <glyph glyph-name="w" unicode="w" 
d="M0 700h200v-600h100v-100h-200v100h-100v600zM600 700h100v-600h-100v600zM300 500h200v-400h100v-100h-200v100h-100v400z" />
    <glyph glyph-name="x" unicode="x" 
d="M600 700h100v-200h-100v200zM500 500h100v-100h-100v100zM200 300h100v-100h-100v100zM100 200h100v-200h-100v200zM100 700h200v-200h100v-100h100v-100h100v-100h100v-200h-200v200h-100v100h-100v100h-100v100h-100v200z" />
    <glyph glyph-name="y" unicode="y" 
d="M100 0h100v-100h-100v100zM100 700h200v-500h200v500h200v-800h-100v-100h-400v100h300v200h-300v100h-100v500z" />
    <glyph glyph-name="z" unicode="z" 
d="M100 700h600v-200h-100v-100h-100v-100h-100v-100h-100v-100h400v-100h-600v200h100v100h100v100h100v100h100v100h-400v100z" />
    <glyph glyph-name="braceleft" unicode="{" 
d="M400 900h300v-100h-200v-300h-100v-100h100v-300h200v-100h-300v100h-100v300h-100v100h100v300h100v100z" />
    <glyph glyph-name="bar" unicode="|" 
d="M300 900h200v-900h-200v900z" />
    <glyph glyph-name="braceright" unicode="}" 
d="M100 900h300v-100h100v-300h100v-100h-100v-300h-100v-100h-300v100h200v300h100v100h-100v300h-200v100z" />
    <glyph glyph-name="asciitilde" unicode="~" 
d="M0 800h100v-100h-100v100zM600 900h100v-100h-100v100zM100 900h300v-100h200v-100h-300v100h-200v100z" />
    <glyph glyph-name="uni00A0" unicode="&#xa0;" 
 />
    <glyph glyph-name="exclamdown" unicode="&#xa1;" 
d="M500 -200h-200v700h200v-700zM500 600h-200v100h200v-100z" />
    <glyph glyph-name="cent" unicode="&#xa2;" 
d="M600 600h100v-100h-100v100zM600 200h100v-100h-100v100zM400 900h100v-200h100v-100h-100v-500h100v-100h-100v-200h-100v200h-200v100h-100v500h100v100h200v200zM400 600h-100v-500h100v500z" />
    <glyph glyph-name="sterling" unicode="&#xa3;" 
d="M600 200h100v-100h-100v100zM600 800h100v-100h-100v100zM200 900h400v-100h-300v-300h200v-100h-200v-300h300v-100h-600v100h100v300h-100v100h100v300h100v100z" />
    <glyph glyph-name="yen" unicode="&#xa5;" 
d="M600 900h100v-300h-100v300zM500 600h100v-100h-100v100zM100 900h200v-300h100v-100h100v-100h200v-100h-200v-100h200v-100h-200v-100h-200v100h-200v100h200v100h-200v100h200v100h-100v100h-100v300z" />
    <glyph glyph-name="brokenbar" unicode="&#xa6;" 
d="M300 400h200v-400h-200v400zM300 900h200v-400h-200v400z" />
    <glyph glyph-name="dieresis" unicode="&#xa8;" 
d="M100 900h200v-100h-200v100zM400 900h200v-100h-200v100z" />
    <glyph glyph-name="copyright" unicode="&#xa9;" 
d="M300 300h200v-100h-200v100zM200 600h100v-300h-100v300zM300 700h200v-100h-200v100zM600 800h100v-700h-100v700zM100 100h500v-100h-500v100zM0 800h100v-700h-100v700zM100 900h500v-100h-500v100z" />
    <glyph glyph-name="guillemotleft" unicode="&#xab;" 
d="M600 700h200v-100h-100v-100h-100v-100h100v-100h100v-100h-200v100h-100v100h-100v100h100v100h100v100zM200 700h200v-100h-100v-100h-100v-100h100v-100h100v-100h-200v100h-100v100h-100v100h100v100h100v100z" />
    <glyph glyph-name="logicalnot" unicode="&#xac;" 
d="M100 500h600v-300h-200v200h-400v100z" />
    <glyph glyph-name="registered" unicode="&#xae;" 
d="M400 300h100v-100h-100v100zM400 600h100v-200h-100v200zM600 800h100v-700h-100v700zM100 100h500v-100h-500v100zM0 800h100v-700h-100v700zM100 900h500v-100h-500v100zM200 700h200v-100h-100v-200h100v-100h-100v-100h-100v500z" />
    <glyph glyph-name="degree" unicode="&#xb0;" 
d="M200 900h300v-100h100v-200h-100v-100h-300v100h-100v200h100v100zM400 800h-100v-200h100v200z" />
    <glyph glyph-name="plusminus" unicode="&#xb1;" 
d="M100 100h600v-100h-600v100zM300 700h200v-200h200v-100h-200v-200h-200v200h-200v100h200v200z" />
    <glyph glyph-name="acute" unicode="&#xb4;" 
d="M400 900h200v-100h-100v-100h-200v100h100v100z" />
    <glyph glyph-name="mu" unicode="&#xb5;" 
d="M100 700h200v-600h200v600h200v-600h-100v-100h-300v-200h-200v900z" />
    <glyph glyph-name="paragraph" unicode="&#xb6;" 
d="M100 900h600v-900h-200v800h-100v-800h-200v400h-100v100h-100v300h100v100z" />
    <glyph glyph-name="periodcentered" unicode="&#xb7;" 
d="M300 500h200v-100h-200v100z" />
    <glyph glyph-name="cedilla" unicode="&#xb8;" 
d="M300 0h200v-100h100v-100h-100v-100h-300v100h200v100h-100v100z" />
    <glyph glyph-name="guillemotright" unicode="&#xbb;" 
d="M400 700h200v-100h100v-100h100v-100h-100v-100h-100v-100h-200v100h100v100h100v100h-100v100h-100v100zM0 700h200v-100h100v-100h100v-100h-100v-100h-100v-100h-200v100h100v100h100v100h-100v100h-100v100z" />
    <glyph glyph-name="questiondown" unicode="&#xbf;" 
d="M700 -100h-100v100h100v-100zM600 -200h-400v100h-100v200h100v100h100v300h200v-300h-100v-100h-100v-200h300v-100zM500 600h-200v100h200v-100z" />
    <glyph glyph-name="Agrave" unicode="&#xc0;" 
d="M200 1200h200v-100h100v-100h-200v100h-100v100zM200 900h400v-100h100v-800h-200v300h-200v-300h-200v800h100v100zM500 800h-200v-400h200v400z" />
    <glyph glyph-name="Aacute" unicode="&#xc1;" 
d="M400 1200h200v-100h-100v-100h-200v100h100v100zM200 900h400v-100h100v-800h-200v300h-200v-300h-200v800h100v100zM500 800h-200v-400h200v400z" />
    <glyph glyph-name="Acircumflex" unicode="&#xc2;" 
d="M300 1300h200v-100h100v-100h100v-100h-200v100h-200v-100h-200v100h100v100h100v100zM200 900h400v-100h100v-800h-200v300h-200v-300h-200v800h100v100zM500 800h-200v-400h200v400z" />
    <glyph glyph-name="Atilde" unicode="&#xc3;" 
d="M100 1100h100v-100h-100v100zM700 1200h100v-100h-100v100zM200 1200h300v-100h200v-100h-300v100h-200v100zM200 900h400v-100h100v-800h-200v300h-200v-300h-200v800h100v100zM500 800h-200v-400h200v400z" />
    <glyph glyph-name="Adieresis" unicode="&#xc4;" 
d="M200 900h400v-100h100v-800h-200v300h-200v-300h-200v800h100v100zM500 800h-200v-400h200v400zM100 1100h200v-100h-200v100zM500 1100h200v-100h-200v100z" />
    <glyph glyph-name="Aring" unicode="&#xc5;" 
d="M200 900h400v-100h100v-800h-200v300h-200v-300h-200v800h100v100zM500 800h-200v-400h200v400zM200 1300h400v-100h100v-100h-100v-100h-400v100h-100v100h100v100zM500 1200h-200v-100h200v100z" />
    <glyph glyph-name="AE" unicode="&#xc6;" 
d="M100 900h700v-100h-200v-300h200v-100h-200v-300h200v-100h-400v300h-200v-300h-200v800h100v100zM400 800h-200v-400h200v400z" />
    <glyph glyph-name="Ccedilla" unicode="&#xc7;" 
d="M600 800h100v-100h-100v100zM600 200h100v-100h-100v100zM200 900h400v-100h-300v-700h300v-100h-100v-100h100v-100h-100v-100h-300v100h200v100h-100v100h-100v100h-100v700h100v100z" />
    <glyph glyph-name="Egrave" unicode="&#xc8;" 
d="M200 1200h200v-100h100v-100h-200v100h-100v100zM100 900h600v-100h-400v-300h200v-100h-200v-300h400v-100h-600v900z" />
    <glyph glyph-name="Eacute" unicode="&#xc9;" 
d="M400 1200h200v-100h-100v-100h-200v100h100v100zM100 900h600v-100h-400v-300h200v-100h-200v-300h400v-100h-600v900z" />
    <glyph glyph-name="Ecircumflex" unicode="&#xca;" 
d="M300 1300h200v-100h100v-100h100v-100h-200v100h-200v-100h-200v100h100v100h100v100zM100 900h600v-100h-400v-300h200v-100h-200v-300h400v-100h-600v900z" />
    <glyph glyph-name="Edieresis" unicode="&#xcb;" 
d="M100 900h600v-100h-400v-300h200v-100h-200v-300h400v-100h-600v900zM100 1100h200v-100h-200v100zM500 1100h200v-100h-200v100z" />
    <glyph glyph-name="Igrave" unicode="&#xcc;" 
d="M200 1200h200v-100h100v-100h-200v100h-100v100zM100 900h600v-100h-200v-700h200v-100h-600v100h200v700h-200v100z" />
    <glyph glyph-name="Iacute" unicode="&#xcd;" 
d="M400 1200h200v-100h-100v-100h-200v100h100v100zM100 900h600v-100h-200v-700h200v-100h-600v100h200v700h-200v100z" />
    <glyph glyph-name="Icircumflex" unicode="&#xce;" 
d="M300 1300h200v-100h100v-100h100v-100h-200v100h-200v-100h-200v100h100v100h100v100zM100 900h600v-100h-200v-700h200v-100h-600v100h200v700h-200v100z" />
    <glyph glyph-name="Idieresis" unicode="&#xcf;" 
d="M100 900h600v-100h-200v-700h200v-100h-600v100h200v700h-200v100zM100 1100h200v-100h-200v100zM500 1100h200v-100h-200v100z" />
    <glyph glyph-name="Eth" unicode="&#xd0;" 
d="M100 900h500v-100h100v-700h-100v-100h-500v400h-100v100h100v400zM500 800h-200v-300h100v-100h-100v-300h200v700z" />
    <glyph glyph-name="Ntilde" unicode="&#xd1;" 
d="M100 1100h100v-100h-100v100zM700 1200h100v-100h-100v100zM200 1200h300v-100h200v-100h-300v100h-200v100zM100 900h200v-200h100v-100h100v-100h100v400h100v-900h-100v300h-100v100h-100v100h-100v-500h-200v900z" />
    <glyph glyph-name="Ograve" unicode="&#xd2;" 
d="M200 1200h200v-100h100v-100h-200v100h-100v100zM200 900h400v-100h100v-700h-100v-100h-400v100h-100v700h100v100zM500 800h-200v-700h200v700z" />
    <glyph glyph-name="Oacute" unicode="&#xd3;" 
d="M400 1200h200v-100h-100v-100h-200v100h100v100zM200 900h400v-100h100v-700h-100v-100h-400v100h-100v700h100v100zM500 800h-200v-700h200v700z" />
    <glyph glyph-name="Ocircumflex" unicode="&#xd4;" 
d="M300 1300h200v-100h100v-100h100v-100h-200v100h-200v-100h-200v100h100v100h100v100zM200 900h400v-100h100v-700h-100v-100h-400v100h-100v700h100v100zM500 800h-200v-700h200v700z" />
    <glyph glyph-name="Otilde" unicode="&#xd5;" 
d="M100 1100h100v-100h-100v100zM700 1200h100v-100h-100v100zM200 1200h300v-100h200v-100h-300v100h-200v100zM200 900h400v-100h100v-700h-100v-100h-400v100h-100v700h100v100zM500 800h-200v-700h200v700z" />
    <glyph glyph-name="Odieresis" unicode="&#xd6;" 
d="M200 900h400v-100h100v-700h-100v-100h-400v100h-100v700h100v100zM500 800h-200v-700h200v700zM100 1100h200v-100h-200v100zM500 1100h200v-100h-200v100z" />
    <glyph glyph-name="multiply" unicode="&#xd7;" 
d="M100 700h200v-100h200v100h200v-100h-100v-100h-100v-100h100v-100h100v-100h-200v100h-200v-100h-200v100h100v100h100v100h-100v100h-100v100z" />
    <glyph glyph-name="Oslash" unicode="&#xd8;" 
d="M500 800h-200v-300h100v100h100v200zM500 400h-100v-100h-100v-200h200v300zM200 900h400v-100h100v100h100v-200h-100v-600h-100v-100h-400v100h-100v-100h-100v200h100v600h100v100z" />
    <glyph glyph-name="Ugrave" unicode="&#xd9;" 
d="M200 1200h200v-100h100v-100h-200v100h-100v100zM100 900h200v-800h200v800h200v-800h-100v-100h-400v100h-100v800z" />
    <glyph glyph-name="Uacute" unicode="&#xda;" 
d="M400 1200h200v-100h-100v-100h-200v100h100v100zM100 900h200v-800h200v800h200v-800h-100v-100h-400v100h-100v800z" />
    <glyph glyph-name="Ucircumflex" unicode="&#xdb;" 
d="M300 1300h200v-100h100v-100h100v-100h-200v100h-200v-100h-200v100h100v100h100v100zM100 900h200v-800h200v800h200v-800h-100v-100h-400v100h-100v800z" />
    <glyph glyph-name="Udieresis" unicode="&#xdc;" 
d="M100 900h200v-800h200v800h200v-800h-100v-100h-400v100h-100v800zM100 1100h200v-100h-200v100zM500 1100h200v-100h-200v100z" />
    <glyph glyph-name="Yacute" unicode="&#xdd;" 
d="M400 1200h200v-100h-100v-100h-200v100h100v100zM500 600h100v-100h-100v100zM600 900h100v-300h-100v300zM100 900h200v-300h100v-100h100v-500h-200v500h-100v100h-100v300z" />
    <glyph glyph-name="Thorn" unicode="&#xde;" 
d="M100 900h200v-200h300v-100h100v-300h-100v-100h-300v-200h-200v900zM500 600h-200v-300h200v300z" />
    <glyph glyph-name="germandbls" unicode="&#xdf;" 
d="M200 900h400v-100h100v-200h-100v-100h-100v300h-200v-800h-200v800h100v100zM400 500h100v-100h100v-100h100v-200h-100v-100h-200v100h100v200h-100v200z" />
    <glyph glyph-name="agrave" unicode="&#xe0;" 
d="M200 1000h200v-100h100v-100h-200v100h-100v100zM100 600h100v-100h-100v100zM200 700h400v-100h100v-600h-500v100h-100v200h100v100h300v200h-300v100zM500 300h-200v-200h200v200z" />
    <glyph glyph-name="aacute" unicode="&#xe1;" 
d="M400 1000h200v-100h-100v-100h-200v100h100v100zM100 600h100v-100h-100v100zM200 700h400v-100h100v-600h-500v100h-100v200h100v100h300v200h-300v100zM500 300h-200v-200h200v200z" />
    <glyph glyph-name="acircumflex" unicode="&#xe2;" 
d="M300 1100h200v-100h100v-100h100v-100h-200v100h-200v-100h-200v100h100v100h100v100zM100 600h100v-100h-100v100zM200 700h400v-100h100v-600h-500v100h-100v200h100v100h300v200h-300v100zM500 300h-200v-200h200v200z" />
    <glyph glyph-name="atilde" unicode="&#xe3;" 
d="M100 900h100v-100h-100v100zM700 1000h100v-100h-100v100zM200 1000h300v-100h200v-100h-300v100h-200v100zM100 600h100v-100h-100v100zM200 700h400v-100h100v-600h-500v100h-100v200h100v100h300v200h-300v100zM500 300h-200v-200h200v200z" />
    <glyph glyph-name="adieresis" unicode="&#xe4;" 
d="M500 300h-200v-200h200v200zM200 700h400v-100h100v-600h-500v100h-100v200h100v100h300v200h-200v-100h-200v100h100v100zM100 900h200v-100h-200v100zM500 900h200v-100h-200v100z" />
    <glyph glyph-name="aring" unicode="&#xe5;" 
d="M500 300h-200v-200h200v200zM200 700h400v-100h100v-600h-500v100h-100v200h100v100h300v200h-200v-100h-200v100h100v100zM200 1200h400v-100h100v-200h-100v-100h-400v100h-100v200h100v100zM500 1100h-200v-200h200v200z" />
    <glyph glyph-name="ae" unicode="&#xe6;" 
d="M0 600h100v-100h-100v100zM700 200h100v-100h-100v100zM100 700h300v-100h100v-200h100v200h-100v100h200v-100h100v-300h-300v-200h200v-100h-300v100h-100v200h-100v-200h100v-100h-200v100h-100v200h100v100h200v200h-200v100z" />
    <glyph glyph-name="ccedilla" unicode="&#xe7;" 
d="M600 600h100v-100h-100v100zM600 200h100v-100h-100v100zM200 700h400v-100h-300v-500h300v-100h-100v-100h100v-100h-100v-100h-300v100h200v100h-100v100h-100v100h-100v500h100v100z" />
    <glyph glyph-name="egrave" unicode="&#xe8;" 
d="M200 1000h200v-100h100v-100h-200v100h-100v100zM600 200h100v-100h-100v100zM200 700h400v-100h100v-300h-400v-200h300v-100h-400v100h-100v500h100v100zM500 600h-200v-200h200v200z" />
    <glyph glyph-name="eacute" unicode="&#xe9;" 
d="M400 1000h200v-100h-100v-100h-200v100h100v100zM600 200h100v-100h-100v100zM200 700h400v-100h100v-300h-400v-200h300v-100h-400v100h-100v500h100v100zM500 600h-200v-200h200v200z" />
    <glyph glyph-name="ecircumflex" unicode="&#xea;" 
d="M300 1100h200v-100h100v-100h100v-100h-200v100h-200v-100h-200v100h100v100h100v100zM600 200h100v-100h-100v100zM200 700h400v-100h100v-300h-400v-200h300v-100h-400v100h-100v500h100v100zM500 600h-200v-200h200v200z" />
    <glyph glyph-name="edieresis" unicode="&#xeb;" 
d="M500 600h-200v-200h200v200zM200 700h400v-100h100v-300h-400v-200h200v100h200v-100h-100v-100h-400v100h-100v500h100v100zM100 900h200v-100h-200v100zM500 900h200v-100h-200v100z" />
    <glyph glyph-name="igrave" unicode="&#xec;" 
d="M200 1000h200v-100h100v-100h-200v100h-100v100zM100 700h400v-600h200v-100h-600v100h200v500h-200v100z" />
    <glyph glyph-name="iacute" unicode="&#xed;" 
d="M400 1000h200v-100h-100v-100h-200v100h100v100zM100 700h400v-600h200v-100h-600v100h200v500h-200v100z" />
    <glyph glyph-name="icircumflex" unicode="&#xee;" 
d="M300 1100h200v-100h100v-100h100v-100h-200v100h-200v-100h-200v100h100v100h100v100zM100 700h400v-600h200v-100h-600v100h200v500h-200v100z" />
    <glyph glyph-name="idieresis" unicode="&#xef;" 
d="M100 700h400v-600h200v-100h-600v100h200v500h-200v100zM100 900h200v-100h-200v100zM500 900h200v-100h-200v100z" />
    <glyph glyph-name="eth" unicode="&#xf0;" 
d="M500 900h200v-100h100v-100h-100v-700h-500v100h-100v400h100v100h300v100h-200v100h200v100zM500 500h-200v-400h200v400z" />
    <glyph glyph-name="ntilde" unicode="&#xf1;" 
d="M200 1200h300v-100h100v-200h-100v-100h-300v100h-100v200h100v100zM400 1100h-100v-200h100v200zM100 700h500v-100h100v-600h-200v600h-200v-600h-200v700z" />
    <glyph glyph-name="ograve" unicode="&#xf2;" 
d="M200 1000h200v-100h100v-100h-200v100h-100v100zM200 700h400v-100h100v-500h-100v-100h-400v100h-100v500h100v100zM500 600h-200v-500h200v500z" />
    <glyph glyph-name="oacute" unicode="&#xf3;" 
d="M400 1000h200v-100h-100v-100h-200v100h100v100zM200 700h400v-100h100v-500h-100v-100h-400v100h-100v500h100v100zM500 600h-200v-500h200v500z" />
    <glyph glyph-name="ocircumflex" unicode="&#xf4;" 
d="M300 1100h200v-100h100v-100h100v-100h-200v100h-200v-100h-200v100h100v100h100v100zM200 700h400v-100h100v-500h-100v-100h-400v100h-100v500h100v100zM500 600h-200v-500h200v500z" />
    <glyph glyph-name="otilde" unicode="&#xf5;" 
d="M100 900h100v-100h-100v100zM700 1000h100v-100h-100v100zM200 1000h300v-100h200v-100h-300v100h-200v100zM200 700h400v-100h100v-500h-100v-100h-400v100h-100v500h100v100zM500 600h-200v-500h200v500z" />
    <glyph glyph-name="odieresis" unicode="&#xf6;" 
d="M200 700h400v-100h100v-500h-100v-100h-400v100h-100v500h100v100zM500 600h-200v-500h200v500zM100 900h200v-100h-200v100zM500 900h200v-100h-200v100z" />
    <glyph glyph-name="divide" unicode="&#xf7;" 
d="M300 700h200v-100h-200v100zM300 300h200v-100h-200v100zM100 500h600v-100h-600v100z" />
    <glyph glyph-name="oslash" unicode="&#xf8;" 
d="M500 600h-200v-200h100v100h100v100zM500 300h-100v-100h-100v-100h200v200zM200 700h400v-100h100v100h100v-200h-100v-400h-100v-100h-400v100h-100v-100h-100v200h100v400h100v100z" />
    <glyph glyph-name="ugrave" unicode="&#xf9;" 
d="M200 1000h200v-100h100v-100h-200v100h-100v100zM100 700h200v-600h200v600h200v-600h-100v-100h-400v100h-100v600z" />
    <glyph glyph-name="uacute" unicode="&#xfa;" 
d="M400 1000h200v-100h-100v-100h-200v100h100v100zM100 700h200v-600h200v600h200v-600h-100v-100h-400v100h-100v600z" />
    <glyph glyph-name="ucircumflex" unicode="&#xfb;" 
d="M300 1100h200v-100h100v-100h100v-100h-200v100h-200v-100h-200v100h100v100h100v100zM100 700h200v-600h200v600h200v-600h-100v-100h-400v100h-100v600z" />
    <glyph glyph-name="udieresis" unicode="&#xfc;" 
d="M100 700h200v-600h200v600h200v-600h-100v-100h-400v100h-100v600zM100 900h200v-100h-200v100zM500 900h200v-100h-200v100z" />
    <glyph glyph-name="yacute" unicode="&#xfd;" 
d="M400 1000h200v-100h-100v-100h-200v100h100v100zM100 0h100v-100h-100v100zM100 700h200v-500h200v500h200v-800h-100v-100h-400v100h300v200h-300v100h-100v500z" />
    <glyph glyph-name="thorn" unicode="&#xfe;" 
d="M100 900h200v-200h300v-100h100v-500h-100v-100h-300v-200h-200v1100zM500 600h-200v-500h200v500z" />
    <glyph glyph-name="ydieresis" unicode="&#xff;" 
d="M100 0h100v-100h-100v100zM100 700h200v-500h200v500h200v-800h-100v-100h-400v100h300v200h-300v100h-100v500zM100 900h200v-100h-200v100zM500 900h200v-100h-200v100z" />
    <glyph glyph-name="Ccircumflex" unicode="&#x108;" 
d="M300 1300h200v-100h100v-100h100v-100h-200v100h-200v-100h-200v100h100v100h100v100zM600 800h100v-100h-100v100zM600 200h100v-100h-100v100zM200 900h400v-100h-300v-700h300v-100h-400v100h-100v700h100v100z" />
    <glyph glyph-name="ccircumflex" unicode="&#x109;" 
d="M300 1100h200v-100h100v-100h100v-100h-200v100h-200v-100h-200v100h100v100h100v100zM600 600h100v-100h-100v100zM600 200h100v-100h-100v100zM200 700h400v-100h-300v-500h300v-100h-400v100h-100v500h100v100z" />
    <glyph glyph-name="Ccaron" unicode="&#x10c;" 
d="M100 1300h200v-100h200v100h200v-100h-100v-100h-100v-100h-200v100h-100v100h-100v100zM600 800h100v-100h-100v100zM600 200h100v-100h-100v100zM200 900h400v-100h-300v-700h300v-100h-400v100h-100v700h100v100z" />
    <glyph glyph-name="ccaron" unicode="&#x10d;" 
d="M100 1100h200v-100h200v100h200v-100h-100v-100h-100v-100h-200v100h-100v100h-100v100zM600 600h100v-100h-100v100zM600 200h100v-100h-100v100zM200 700h400v-100h-300v-500h300v-100h-400v100h-100v500h100v100z" />
    <glyph glyph-name="Dcaron" unicode="&#x10e;" 
d="M100 1300h200v-100h200v100h200v-100h-100v-100h-100v-100h-200v100h-100v100h-100v100zM100 900h500v-100h100v-700h-100v-100h-500v900zM500 800h-200v-700h200v700z" />
    <glyph glyph-name="dcaron" unicode="&#x10f;" 
d="M300 600h-100v-500h100v500zM300 900h200v-200h100v200h200v-200h-100v-100h-200v-600h-400v100h-100v500h100v100h200v200z" />
    <glyph glyph-name="Ecaron" unicode="&#x11a;" 
d="M100 1300h200v-100h200v100h200v-100h-100v-100h-100v-100h-200v100h-100v100h-100v100zM100 900h600v-100h-400v-300h200v-100h-200v-300h400v-100h-600v900z" />
    <glyph glyph-name="ecaron" unicode="&#x11b;" 
d="M100 1100h200v-100h200v100h200v-100h-100v-100h-100v-100h-200v100h-100v100h-100v100zM600 200h100v-100h-100v100zM200 700h400v-100h100v-300h-400v-200h300v-100h-400v100h-100v500h100v100zM500 600h-200v-200h200v200z" />
    <glyph glyph-name="Gcircumflex" unicode="&#x11c;" 
d="M300 1300h200v-100h100v-100h100v-100h-200v100h-200v-100h-200v100h100v100h100v100zM600 800h100v-100h-100v100zM200 900h400v-100h-300v-700h200v300h-100v100h300v-500h-500v100h-100v700h100v100z" />
    <glyph glyph-name="gcircumflex" unicode="&#x11d;" 
d="M300 1100h200v-100h100v-100h100v-100h-200v100h-200v-100h-200v100h100v100h100v100zM100 0h100v-100h-100v100zM200 700h500v-800h-100v-100h-400v100h300v200h-300v100h-100v400h100v100zM500 600h-200v-400h200v400z" />
    <glyph glyph-name="Hcircumflex" unicode="&#x124;" 
d="M300 1300h200v-100h100v-100h100v-100h-200v100h-200v-100h-200v100h100v100h100v100zM100 900h200v-400h200v400h200v-900h-200v400h-200v-400h-200v900z" />
    <glyph glyph-name="hcircumflex" unicode="&#x125;" 
d="M300 1300h200v-100h100v-100h100v-100h-200v100h-200v-100h-200v100h100v100h100v100zM100 900h200v-200h300v-100h100v-600h-200v600h-200v-600h-200v900z" />
    <glyph glyph-name="dotlessi" unicode="&#x131;" 
d="M100 700h400v-600h200v-100h-600v100h200v500h-200v100z" />
    <glyph glyph-name="Jcircumflex" unicode="&#x134;" 
d="M300 1300h200v-100h100v-100h100v-100h-200v100h-200v-100h-200v100h100v100h100v100zM100 200h100v-100h-100v100zM300 900h500v-100h-100v-700h-100v-100h-400v100h300v700h-200v100z" />
    <glyph glyph-name="jcircumflex" unicode="&#x135;" 
d="M300 1100h200v-100h100v-100h100v-100h-200v100h-200v-100h-200v100h100v100h100v100zM100 0h100v-100h-100v100zM500 700h200v-800h-100v-100h-400v100h300v800z" />
    <glyph glyph-name="Ncaron" unicode="&#x147;" 
d="M100 1300h200v-100h200v100h200v-100h-100v-100h-100v-100h-200v100h-100v100h-100v100zM100 900h200v-200h100v-100h100v-100h100v400h100v-900h-100v300h-100v100h-100v100h-100v-500h-200v900z" />
    <glyph glyph-name="ncaron" unicode="&#x148;" 
d="M100 1100h200v-100h200v100h200v-100h-100v-100h-100v-100h-200v100h-100v100h-100v100zM100 700h500v-100h100v-600h-200v600h-200v-600h-200v700z" />
    <glyph glyph-name="OE" unicode="&#x152;" 
d="M100 900h700v-100h-200v-300h200v-100h-200v-300h200v-100h-700v100h-100v700h100v100zM400 800h-200v-700h200v700z" />
    <glyph glyph-name="oe" unicode="&#x153;" 
d="M700 200h100v-100h-100v100zM100 700h300v-100h100v-200h100v200h-100v100h200v-100h100v-300h-300v-200h200v-100h-300v100h-100v500h-100v-500h100v-100h-200v100h-100v500h100v100z" />
    <glyph glyph-name="Rcaron" unicode="&#x158;" 
d="M100 1300h200v-100h200v100h200v-100h-100v-100h-100v-100h-200v100h-100v100h-100v100zM500 800h-200v-300h200v300zM100 900h500v-100h100v-300h-100v-100h-100v-100h100v-100h100v-200h-200v200h-100v100h-100v-300h-200v900z" />
    <glyph glyph-name="rcaron" unicode="&#x159;" 
d="M100 1100h200v-100h200v100h200v-100h-100v-100h-100v-100h-200v100h-100v100h-100v100zM100 700h200v-200h100v-100h-100v-400h-200v700zM500 700h200v-200h-300v100h100v100z" />
    <glyph glyph-name="Scircumflex" unicode="&#x15c;" 
d="M300 1300h200v-100h100v-100h100v-100h-200v100h-200v-100h-200v100h100v100h100v100zM600 800h100v-100h-100v100zM100 200h100v-100h-100v100zM200 900h400v-100h-300v-300h300v-100h100v-300h-100v-100h-400v100h300v300h-300v100h-100v300h100v100z" />
    <glyph glyph-name="scircumflex" unicode="&#x15d;" 
d="M300 1100h200v-100h100v-100h100v-100h-200v100h-200v-100h-200v100h100v100h100v100zM600 600h100v-100h-100v100zM100 200h100v-100h-100v100zM200 700h400v-100h-300v-200h300v-100h100v-200h-100v-100h-400v100h300v200h-300v100h-100v200h100v100z" />
    <glyph glyph-name="Scaron" unicode="&#x160;" 
d="M100 1300h200v-100h200v100h200v-100h-100v-100h-100v-100h-200v100h-100v100h-100v100zM600 800h100v-100h-100v100zM100 200h100v-100h-100v100zM200 900h400v-100h-300v-300h300v-100h100v-300h-100v-100h-400v100h300v300h-300v100h-100v300h100v100z" />
    <glyph glyph-name="scaron" unicode="&#x161;" 
d="M100 1100h200v-100h200v100h200v-100h-100v-100h-100v-100h-200v100h-100v100h-100v100zM600 600h100v-100h-100v100zM100 200h100v-100h-100v100zM200 700h400v-100h-300v-200h300v-100h100v-200h-100v-100h-400v100h300v200h-300v100h-100v200h100v100z" />
    <glyph glyph-name="Tcaron" unicode="&#x164;" 
d="M100 1300h200v-100h200v100h200v-100h-100v-100h-100v-100h-200v100h-100v100h-100v100zM100 900h600v-100h-200v-800h-200v800h-200v100z" />
    <glyph glyph-name="tcaron" unicode="&#x165;" 
d="M100 800h200v-100h100v-100h-100v-500h200v-100h-300v100h-100v500h-100v100h100v100zM600 900h200v-200h-100v-100h-200v100h100v200z" />
    <glyph glyph-name="Ubreve" unicode="&#x16c;" 
d="M100 1200h200v-100h200v100h200v-100h-100v-100h-400v100h-100v100zM100 900h200v-800h200v800h200v-800h-100v-100h-400v100h-100v800z" />
    <glyph glyph-name="ubreve" unicode="&#x16d;" 
d="M100 1000h200v-100h200v100h200v-100h-100v-100h-400v100h-100v100zM100 700h200v-600h200v600h200v-600h-100v-100h-400v100h-100v600z" />
    <glyph glyph-name="Uring" unicode="&#x16e;" 
d="M100 900h200v-800h200v800h200v-800h-100v-100h-400v100h-100v800zM200 1300h400v-100h100v-100h-100v-100h-400v100h-100v100h100v100zM500 1200h-200v-100h200v100z" />
    <glyph glyph-name="uring" unicode="&#x16f;" 
d="M100 700h200v-600h200v600h200v-600h-100v-100h-400v100h-100v600zM200 1200h400v-100h100v-200h-100v-100h-400v100h-100v200h100v100zM500 1100h-200v-200h200v200z" />
    <glyph glyph-name="Ydieresis" unicode="&#x178;" 
d="M100 900h200v-300h200v300h200v-300h-100v-100h-100v-500h-200v500h-100v100h-100v300zM100 1100h200v-100h-200v100zM500 1100h200v-100h-200v100z" />
    <glyph glyph-name="Zcaron" unicode="&#x17d;" 
d="M100 1300h200v-100h200v100h200v-100h-100v-100h-100v-100h-200v100h-100v100h-100v100zM100 900h600v-300h-100v-100h-100v-100h-100v-100h-100v-200h400v-100h-600v300h100v100h100v100h100v100h100v200h-400v100z" />
    <glyph glyph-name="zcaron" unicode="&#x17e;" 
d="M100 1100h200v-100h200v100h200v-100h-100v-100h-100v-100h-200v100h-100v100h-100v100zM100 700h600v-200h-100v-100h-100v-100h-100v-100h-100v-100h400v-100h-600v200h100v100h100v100h100v100h100v100h-400v100z" />
    <glyph glyph-name="circumflex" unicode="&#x2c6;" 
d="M300 1000h200v-100h100v-100h100v-100h-200v100h-200v-100h-200v100h100v100h100v100z" />
    <glyph glyph-name="caron" unicode="&#x2c7;" 
d="M100 1000h200v-100h200v100h200v-100h-100v-100h-100v-100h-200v100h-100v100h-100v100z" />
    <glyph glyph-name="breve" unicode="&#x2d8;" 
d="M100 900h200v-100h200v100h200v-100h-100v-100h-400v100h-100v100z" />
    <glyph glyph-name="ring" unicode="&#x2da;" 
d="M200 1100h300v-100h100v-200h-100v-100h-300v100h-100v200h100v100zM400 1000h-100v-200h100v200z" />
    <glyph glyph-name="tilde" unicode="&#x2dc;" 
d="M0 800h100v-100h-100v100zM600 900h100v-100h-100v100zM100 900h300v-100h200v-100h-300v100h-200v100z" />
    <glyph glyph-name="endash" unicode="&#x2013;" 
d="M200 500h400v-100h-400v100z" />
    <glyph glyph-name="emdash" unicode="&#x2014;" 
d="M100 500h600v-100h-600v100z" />
    <glyph glyph-name="quoteleft" unicode="&#x2018;" 
d="M400 900h200v-100h-100v-200h-200v200h100v100z" />
    <glyph glyph-name="quoteright" unicode="&#x2019;" 
d="M300 900h200v-200h-100v-100h-200v100h100v200z" />
    <glyph glyph-name="quotesinglbase" unicode="&#x201a;" 
d="M400 100h200v-100h-100v-200h-200v200h100v100z" />
    <glyph glyph-name="quotedblleft" unicode="&#x201c;" 
d="M200 500h600v-100h-600v100zM-100 500h600v-100h-600v100z" />
    <glyph glyph-name="quotedblright" unicode="&#x201d;" 
d="M500 900h200v-100h-100v-200h-200v200h100v100zM200 900h200v-100h-100v-200h-200v200h100v100z" />
    <glyph glyph-name="quotedblbase" unicode="&#x201e;" 
d="M200 -300h600v-100h-600v100zM-100 -300h600v-100h-600v100z" />
    <glyph glyph-name="dagger" unicode="&#x2020;" 
d="M300 900h200v-200h200v-100h-200v-600h-200v600h-200v100h200v200z" />
    <glyph glyph-name="daggerdbl" unicode="&#x2021;" 
d="M300 900h200v-200h200v-100h-200v-300h200v-100h-200v-200h-200v200h-200v100h200v300h-200v100h200v200z" />
    <glyph glyph-name="bullet" unicode="&#x2022;" 
d="M300 500h200v-200h-200v200z" />
    <glyph glyph-name="ellipsis" unicode="&#x2026;" 
d="M600 100h200v-100h-200v100zM300 100h200v-100h-200v100zM0 100h200v-100h-200v100z" />
    <glyph glyph-name="perthousand" unicode="&#x2030;" 
d="M500 800h100v-200h-100v-100h-100v-100h-100v-100h-100v-100h-100v-100h-100v200h100v100h100v100h100v100h100v100h100v100zM100 900h100v-100h-100v100zM0 800h100v-200h-100v200zM100 600h100v-100h-100v100zM200 800h100v-200h-100v200zM400 400h100v-100h-100v100z
M300 300h100v-200h-100v200zM400 100h100v-100h-100v100zM500 300h100v-200h-100v200zM600 400h100v-100h-100v100zM600 100h100v-100h-100v100zM700 300h100v-200h-100v200z" />
    <glyph glyph-name="guilsinglleft" unicode="&#x2039;" 
d="M500 700h200v-100h-100v-100h-100v-100h100v-100h100v-100h-200v100h-100v100h-100v100h100v100h100v100z" />
    <glyph glyph-name="guilsinglright" unicode="&#x203a;" 
d="M100 700h200v-100h100v-100h100v-100h-100v-100h-100v-100h-200v100h100v100h100v100h-100v100h-100v100z" />
    <glyph glyph-name="Euro" unicode="&#x20ac;" 
d="M200 900h400v-100h100v-100h-200v100h-200v-200h300v-100h-300v-100h200v-100h-200v-200h200v100h200v-100h-100v-100h-400v100h-100v200h-100v100h100v100h-100v100h100v200h100v100z" />
    <glyph glyph-name="uni20B1" unicode="&#x20b1;" 
d="M100 900h500v-100h100v-100h100v-100h-100v-100h-100v-100h-300v-400h-200v600h-100v100h100v200zM500 600h-200v-100h200v100zM500 800h-200v-100h200v100z" />
    <glyph glyph-name="uni20B7" unicode="&#x20b7;" 
d="M400 300h100v-100h-100v100zM200 300h100v-100h-100v100zM0 300h100v-100h-100v100zM300 900h400v-100h100v-100h-200v100h-200v-300h300v-100h100v-300h-100v-100h-100v-100h-100v100h-100v-100h-100v100h-100v-100h-100v300h100v-100h100v100h100v-100h100v100h100v200
h-300v100h-100v300h100v100z" />
    <glyph glyph-name="uni2117" unicode="&#x2117;" 
d="M400 600h100v-200h-100v200zM600 800h100v-700h-100v700zM100 100h500v-100h-500v100zM0 800h100v-700h-100v700zM100 900h500v-100h-500v100zM200 700h200v-100h-100v-200h100v-100h-100v-100h-100v500z" />
    <glyph glyph-name="trademark" unicode="&#x2122;" 
d="M500 900h100v-200h-100v200zM700 1100h100v-600h-100v400h-100v100h100v100zM0 1100h400v-100h100v-100h-100v-400h-100v500h-100v-500h-100v500h-100v100z" />
  </font>
</defs>
</svg>
